# xmcd
#
# Track frame offsets: 
#        150
#        22173
#        42471
#        69669
#        87342
#        109740
#        132363
#        155061
#        173184
#        193182
#        214605
#        238203
#        261276
#        280974
#        303072
#        325920
#
# Disc length: 4773 seconds
#
# Revision: 0
# Processed by: cddbd v1.5.2PL0 Copyright (c) Steve Scherf et al.
# Submitted via: ExactAudioCopy v0.99pb4
#
DISCID=f212a310
DTITLE=Billy White Trio - Illusionation
DYEAR=2009
DGENRE=Blues/Rock
TTITLE0=Nectarine
TTITLE1=Time Bomb
TTITLE2=Twelve
TTITLE3=No Other
TTITLE4=Fade
TTITLE5=Ashes From the Sun
TTITLE6=The Moth and the Flame
TTITLE7=13 Second Blackout
TTITLE8=Up the Ladder Down
TTITLE9=We All Want to Live Forever
TTITLE10=Give This Life
TTITLE11=Closer
TTITLE12=Cookie Cutter
TTITLE13=Diamond
TTITLE14=Surround You
TTITLE15=Cookie Cutter Live
EXTD=
EXTT0=
EXTT1=
EXTT2=
EXTT3=
EXTT4=
EXTT5=
EXTT6=
EXTT7=
EXTT8=
EXTT9=
EXTT10=
EXTT11=
EXTT12=
EXTT13=
EXTT14=
EXTT15=
PLAYORDER=
